<svg version="1.1" id="Layer_1" xmlns="http://www.w3.org/2000/svg" xmlns:xlink="http://www.w3.org/1999/xlink" x="0px" y="0px"
	 width="100%" viewBox="0 0 500 500" enable-background="new 0 0 500 500" xml:space="preserve">
<path fill="#000000" opacity="1.000000" stroke="none" 
	d="
M235.000000,501.000000 
	C156.666687,501.000000 78.833374,501.000000 1.000042,501.000000 
	C1.000028,334.333405 1.000028,167.666779 1.000014,1.000131 
	C167.666565,1.000087 334.333130,1.000087 500.999756,1.000044 
	C500.999847,167.666519 500.999847,334.333038 500.999939,500.999786 
	C412.500000,501.000000 324.000000,501.000000 235.000000,501.000000 
M264.962585,154.324051 
	C264.962585,154.324051 264.861542,154.749771 264.282654,155.121033 
	C264.113708,156.571762 263.944763,158.022491 263.775848,159.473221 
	C264.233337,159.535980 264.690796,159.598740 265.148285,159.661484 
	C265.440125,158.098984 265.731964,156.536484 266.022949,154.536148 
	C266.022949,154.536148 266.057495,154.099686 266.503571,153.357910 
	C266.029297,153.539520 265.554993,153.721130 264.962585,154.324051 
M348.138763,308.982208 
	C348.138763,308.982208 348.159515,309.045929 349.128082,309.040558 
	C349.720062,308.933228 350.312073,308.825928 350.904053,308.718597 
	C350.468781,308.257263 350.033539,307.795898 350.413452,307.068298 
	C350.413452,306.035095 350.413452,305.001892 350.413452,303.968658 
	C349.987274,303.988617 349.561096,304.008545 349.134949,304.028473 
	C349.257721,305.074341 349.380524,306.120178 348.799957,307.133820 
	C348.521210,307.081329 348.242493,307.028839 347.127258,307.224670 
	C347.310455,307.471008 347.493652,307.717346 347.676819,307.963715 
	C347.841064,307.630676 348.005310,307.297668 347.437195,307.944427 
	C347.658813,308.286713 347.880402,308.628998 348.138763,308.982208 
M199.547058,348.064636 
	C199.779251,347.902588 200.011429,347.740509 200.243622,347.578430 
	C199.790375,347.690582 199.337143,347.802704 198.678909,348.078247 
	C198.817398,348.094971 198.955902,348.111664 199.547058,348.064636 
M308.292511,350.234955 
	C308.346619,350.761658 308.400757,351.288330 308.454865,351.815033 
	C308.731140,351.765320 309.007446,351.715607 309.283722,351.665924 
	C309.167511,351.118073 309.051300,350.570251 309.344574,349.796661 
	C309.712921,349.705414 309.873993,349.471558 310.620697,349.130035 
	C311.822693,348.152039 313.024719,347.174072 314.790009,346.419891 
	C315.710754,346.419891 316.631500,346.419891 318.186890,346.419891 
	C316.219482,343.876617 314.905609,342.426025 313.183899,346.081482 
	C312.095673,347.117004 311.007477,348.152527 309.447205,349.264801 
	C309.271790,349.537781 309.139435,349.830261 308.292511,350.234955 
M191.094193,318.224976 
	C191.094193,318.224976 191.390564,318.236053 191.390564,318.236053 
	C191.390564,318.236053 191.007935,317.993774 190.535019,317.520233 
	C189.889877,317.400970 189.244736,317.281708 187.768082,317.021027 
	C186.795593,317.124603 185.823105,317.228210 184.850616,317.331818 
	C184.905792,317.713196 184.960968,318.094574 185.016144,318.475952 
	C186.216400,318.265533 187.416656,318.055145 189.406403,317.935608 
	C189.935577,317.959930 190.464737,317.984222 191.094193,318.224976 
M133.932877,241.073807 
	C134.025772,240.765518 134.118683,240.457214 134.211594,240.148926 
	C133.509872,240.440475 132.808136,240.732025 131.951172,241.734802 
	C132.067398,242.388779 132.183609,243.042755 132.548080,245.093704 
	C132.995193,242.831131 133.167145,241.960922 133.932877,241.073807 
M268.569580,140.012085 
	C268.269928,140.194534 267.970276,140.376999 267.670624,140.559448 
	C267.856445,140.729889 268.042297,140.900345 268.103760,141.704926 
	C268.071991,142.130478 268.040222,142.556046 267.947266,143.374329 
	C267.947266,143.374329 267.962128,143.771500 267.405914,144.302155 
	C267.638885,144.906784 267.871857,145.511429 268.104797,146.116074 
	C268.429535,145.341324 268.754303,144.566574 269.123199,143.558640 
	C269.123199,143.558640 269.047119,143.333832 269.664093,142.952698 
	C269.799530,142.253876 269.934937,141.555054 270.226105,140.611481 
	C270.226105,140.611481 270.058777,140.374512 270.728119,140.020966 
	C270.411896,139.569977 270.095703,139.119003 269.779480,138.668015 
	C269.553650,139.105576 269.327820,139.543137 268.569580,140.012085 
M194.908417,341.675232 
	C194.416779,342.130829 193.925140,342.586426 192.953308,343.436127 
	C191.519409,344.218414 190.085526,345.000732 188.261078,345.996094 
	C189.646622,347.052704 190.702698,347.858063 192.310745,349.084351 
	C193.422760,346.925049 194.271103,345.277710 195.606628,343.548096 
	C195.825867,343.117004 196.045120,342.685913 196.759583,342.051605 
	C197.044586,341.604309 197.329590,341.157013 198.006683,340.292755 
	C198.234238,339.571625 198.461792,338.850525 199.321304,338.049255 
	C199.697708,337.463501 200.074127,336.877777 200.450531,336.292023 
	C200.076859,336.052979 199.703186,335.813904 199.329498,335.574860 
	C198.885590,336.370331 198.441681,337.165802 197.451828,338.218781 
	C197.264236,338.779541 197.076645,339.340271 196.399673,340.057465 
	C196.078461,340.454529 195.757248,340.851624 194.908417,341.675232 
M144.885162,301.309662 
	C144.591003,301.713074 144.296829,302.116486 144.002686,302.519928 
	C144.375168,302.579529 144.747665,302.639160 145.320938,301.855072 
	C145.865845,301.474640 146.410751,301.094208 146.955673,300.713806 
	C146.756256,300.532349 146.556839,300.350891 146.357422,300.169434 
	C145.925446,300.773102 145.493454,301.376770 144.885162,301.309662 
M338.213623,303.853271 
	C337.832672,304.490845 337.451752,305.128387 337.070801,305.765961 
	C337.397491,305.926727 337.724152,306.087463 338.050842,306.248230 
	C338.392578,305.515228 338.734344,304.782227 339.104523,303.297272 
	C339.590088,303.194672 340.075623,303.092102 340.972961,302.864502 
	C340.724945,302.205200 340.476929,301.545898 340.143829,300.660492 
	C340.051666,301.619293 339.983612,302.327454 339.818054,303.883118 
	C339.534790,303.908447 339.251526,303.933777 338.213623,303.853271 
M323.068878,307.251526 
	C323.068878,307.251526 323.165314,307.349884 323.816284,307.153625 
	C324.050140,306.500366 324.283966,305.847107 324.517822,305.193848 
	C323.979645,305.110962 323.441437,305.028076 322.291260,304.895691 
	C322.196381,305.600464 322.101471,306.305267 321.973450,307.451782 
	C321.973450,307.451782 321.936035,307.893188 321.394348,308.263855 
	C320.919556,309.296814 320.444763,310.329773 319.970001,311.362732 
	C320.282440,311.532837 320.594910,311.702972 320.907379,311.873108 
	C321.532379,310.895355 322.157410,309.917633 323.083069,308.355072 
	C323.097656,307.945557 323.112244,307.536072 323.068878,307.251526 
M188.559814,152.106583 
	C189.155746,151.958557 189.751678,151.810547 190.347595,151.662537 
	C190.310638,151.443726 190.273682,151.224899 190.236725,151.006088 
	C189.495804,151.006088 188.754868,151.006088 187.435623,151.030548 
	C187.243103,151.043350 187.050598,151.056137 186.310913,151.089859 
	C185.850220,151.381561 185.389542,151.673264 184.377014,151.663269 
	C183.968613,152.168625 183.560211,152.673981 183.000000,153.000000 
	C183.000000,153.000000 183.152481,153.178543 182.671783,153.268295 
	C182.412979,153.470413 182.180084,153.698914 181.653748,154.599899 
	C182.574936,154.429672 183.496124,154.259460 184.841522,154.125656 
	C184.841522,154.125656 185.149918,153.827652 185.149918,153.827652 
	C185.149918,153.827652 184.985687,153.431671 185.734192,153.608612 
	C186.257645,153.085327 186.781113,152.562042 187.590683,152.102814 
	C187.590683,152.102814 187.878845,152.048676 188.559814,152.106583 
M227.414642,160.583893 
	C227.585709,160.492706 227.756760,160.401520 228.660049,160.307938 
	C229.463303,159.894257 230.266556,159.480591 231.069809,159.066910 
	C230.958572,158.852966 230.847351,158.639008 230.736115,158.425049 
	C229.827271,158.644440 228.918427,158.863831 227.508469,159.020584 
	C227.340500,159.031891 227.172546,159.043213 226.587418,158.673660 
	C226.029556,159.058746 225.471695,159.443832 224.249954,159.928558 
	C223.479935,160.274689 222.709915,160.620819 221.435333,161.025696 
	C221.266098,161.035538 221.096878,161.045395 220.246414,160.955765 
	C219.900421,161.496979 219.554443,162.038193 219.208466,162.579422 
	C219.847427,162.406601 220.486389,162.233795 221.612961,161.990646 
	C221.612961,161.990646 222.100296,161.918427 222.821289,161.951599 
	C224.279388,161.334793 225.737488,160.717972 227.110443,160.042725 
	C227.110443,160.042725 227.052948,160.128510 227.414642,160.583893 
M160.125214,179.941864 
	C159.134491,179.941864 158.143768,179.941864 157.153046,179.941864 
	C157.224899,180.392151 157.296768,180.842438 157.368637,181.292740 
	C158.546692,180.865570 159.724762,180.438400 161.337494,180.019501 
	C161.341522,179.808212 161.345551,179.596909 161.349579,179.385620 
	C161.224884,179.620316 161.100174,179.855011 160.125214,179.941864 
M339.828400,236.211243 
	C340.002136,235.771957 340.175903,235.332687 340.349640,234.893417 
	C339.845734,235.214462 339.341827,235.535507 338.547119,236.093292 
	C338.803009,236.173492 339.058868,236.253708 339.828400,236.211243 
M267.661377,355.284485 
	C267.758789,354.704285 267.856232,354.124084 267.953674,353.543884 
	C267.618011,353.661224 267.282349,353.778564 266.386261,354.300568 
	C266.243439,355.380310 266.100616,356.460052 265.957825,357.539795 
	C266.249451,357.590332 266.541077,357.640839 266.832703,357.691345 
	C266.917847,357.019501 267.002960,356.347687 267.661377,355.284485 
M349.794067,272.439941 
	C350.179962,271.800537 350.565857,271.161133 350.951721,270.521729 
	C350.313202,270.732391 349.674683,270.943085 348.399719,271.252808 
	C347.923615,271.918579 347.447540,272.584381 346.971436,273.250153 
	C347.688385,273.075256 348.405365,272.900330 349.794067,272.439941 
M358.197113,257.926300 
	C358.197113,257.926300 358.033752,258.084259 358.033752,258.084259 
	C358.033752,258.084259 358.153351,257.946442 357.623199,257.438721 
	C356.598145,257.320282 355.573059,257.201813 354.548004,257.083374 
	C354.532104,257.340485 354.516205,257.597565 354.500305,257.854675 
	C355.697723,257.854675 356.895142,257.854675 358.197113,257.926300 
M305.562103,158.748779 
	C305.293457,158.748444 305.024841,158.748108 304.103271,158.953415 
	C303.209045,159.975372 302.314819,160.997330 300.877411,162.330490 
	C299.681366,163.963928 298.485352,165.597382 297.289337,167.230820 
	C297.831268,167.655533 298.373199,168.080246 298.915131,168.504959 
	C300.285767,166.484161 301.656403,164.463379 303.698822,162.357224 
	C304.154724,161.399277 304.610596,160.441315 305.123322,158.691116 
	C305.599030,158.496185 306.074707,158.301239 307.116852,157.739014 
	C307.282532,157.201202 307.448181,156.663391 307.613831,156.125580 
	C307.160583,155.996658 306.707336,155.867737 306.254120,155.738815 
	C306.044952,156.474365 305.835785,157.209915 305.562103,158.748779 
M218.754440,138.344788 
	C219.186234,137.892120 219.618042,137.439438 220.649460,137.019409 
	C221.742813,136.604355 222.836166,136.189301 223.929520,135.774261 
	C223.644455,135.266846 223.359390,134.759430 223.074326,134.252029 
	C222.055695,135.147308 221.037079,136.042603 219.352295,136.784149 
	C218.896606,136.792358 218.440918,136.800583 217.445023,136.500015 
	C216.614120,136.944412 215.783234,137.388809 214.244217,138.062561 
	C213.793259,138.547195 213.342316,139.031830 212.891373,139.516464 
	C213.051239,139.784271 213.211105,140.052094 213.370987,140.319901 
	C214.990936,139.601547 216.610886,138.883194 218.200684,138.066299 
	C218.200684,138.066299 218.097885,138.073654 218.754440,138.344788 
M154.175613,268.861389 
	C155.102890,268.553772 156.030167,268.246185 157.748840,267.948547 
	C158.808273,267.865906 159.867691,267.783264 160.927124,267.700623 
	C160.722748,267.038025 160.518372,266.375427 160.313995,265.712799 
	C159.176819,266.203064 158.039627,266.693298 156.176468,266.924805 
	C155.330200,266.935486 154.483932,266.946167 153.321808,267.159332 
	C153.453873,267.116730 153.585938,267.074127 154.048599,268.035614 
	C153.888565,268.349548 153.728531,268.663483 152.824768,268.940216 
	C152.162521,269.101166 151.500259,269.262085 150.837997,269.423004 
	C150.946121,269.660309 151.054245,269.897583 151.162369,270.134857 
	C151.965286,269.747253 152.768188,269.359650 154.175613,268.861389 
M132.971313,267.687500 
	C133.025238,268.112000 133.079178,268.536530 133.016190,269.716217 
	C132.889633,270.200836 132.763062,270.685455 132.425201,271.468933 
	C132.858597,271.665802 133.291992,271.862671 133.857269,272.778961 
	C134.085434,273.360748 134.313614,273.942505 134.541779,274.524292 
	C134.844742,274.430542 135.147705,274.336823 135.450668,274.243073 
	C134.944275,272.499084 134.437881,270.755096 134.019073,268.310730 
	C133.956345,267.608856 133.893600,266.906952 133.918213,265.635681 
	C133.258804,265.485931 132.599411,265.336182 131.940002,265.186432 
	C132.262558,265.806366 132.585114,266.426270 132.971313,267.687500 
M208.973038,140.294128 
	C208.274933,140.493271 207.576843,140.692413 206.250122,141.178925 
	C205.755661,142.162582 205.261185,143.146240 204.766724,144.129898 
	C204.999023,144.243454 205.231308,144.357010 205.463608,144.470566 
	C206.615662,143.251480 207.767731,142.032379 208.973038,140.294128 
M348.004547,256.375488 
	C349.417206,256.595154 350.829834,256.814819 352.242493,257.034485 
	C352.271820,256.648071 352.301147,256.261658 352.330505,255.875244 
	C350.721100,255.875244 349.111725,255.875244 347.083923,255.148087 
	C345.842407,254.694168 344.600922,254.240250 343.359406,253.786316 
	C343.260681,254.055862 343.161957,254.325409 343.063232,254.594955 
	C344.552094,255.031662 346.040924,255.468353 348.004547,256.375488 
M360.967834,220.003525 
	C360.906921,219.224365 360.846008,218.445190 360.785126,217.666031 
	C359.646240,218.882355 356.736298,220.373276 360.939880,221.558350 
	C360.628235,223.701324 360.316589,225.844299 360.050934,228.565247 
	C360.393036,229.158157 360.735107,229.751053 361.077209,230.343964 
	C361.298279,230.239166 361.519379,230.134354 361.740448,230.029556 
	C361.492065,229.349823 361.243683,228.670090 361.084229,227.390289 
	C361.139069,226.989899 361.193909,226.589508 361.698853,226.178207 
	C361.984161,225.824753 362.269470,225.471298 362.265381,224.436523 
	C361.871307,223.225052 361.477234,222.013596 360.967834,220.003525 
M161.425720,193.325714 
	C162.058533,192.823715 162.691360,192.321716 163.324173,191.819702 
	C162.863876,191.456802 162.403580,191.093887 161.943283,190.730972 
	C161.301804,191.829086 160.660339,192.927200 159.965988,194.607391 
	C159.656342,195.076157 159.346695,195.544922 158.466507,196.060654 
	C158.170166,196.256622 157.873825,196.452606 157.577484,196.648590 
	C157.820496,196.789124 158.063492,196.929657 158.481277,197.762543 
	C159.355682,196.448914 160.230087,195.135300 161.425720,193.325714 
M146.834152,193.590485 
	C146.028656,194.896835 145.223145,196.203186 144.018173,197.964325 
	C144.506287,198.255798 144.994400,198.547272 145.996017,198.348892 
	C146.868332,196.665924 147.740646,194.982941 149.046371,192.833710 
	C149.076477,192.180450 149.106583,191.527191 149.136688,190.873932 
	C148.470825,191.582199 147.804947,192.290451 146.834152,193.590485 
M176.106842,159.481018 
	C177.210541,158.933807 178.314224,158.386597 179.417923,157.839371 
	C179.426483,157.857635 179.435043,157.875885 179.443619,157.894135 
	C178.211884,158.477554 176.980148,159.060959 175.054733,159.644699 
	C174.679337,160.296951 174.303925,160.949203 173.928528,161.601471 
	C174.244019,161.861450 174.559525,162.121429 174.875015,162.381409 
	C175.334183,161.657379 175.793335,160.933334 176.106842,159.481018 
M307.927551,321.001770 
	C307.281677,321.329254 306.635834,321.656738 305.720245,322.652161 
	C307.168854,322.256378 308.617432,321.860565 309.962708,321.492981 
	C309.393158,321.569366 308.754822,321.654968 307.927551,321.001770 
M314.030396,173.428360 
	C313.678253,172.537415 313.326111,171.646454 312.973969,170.755508 
	C312.625732,170.887741 312.277496,171.019974 311.929260,171.152206 
	C312.257202,172.101532 312.585144,173.050873 312.911743,174.892700 
	C312.975159,177.230835 313.038574,179.568970 312.605225,181.853271 
	C312.597046,182.117065 312.588837,182.380859 312.580627,182.644669 
	C312.742584,182.381729 312.904541,182.118805 313.810120,182.026779 
	C314.006531,183.111389 314.202942,184.195999 314.399353,185.280609 
	C314.646118,185.238327 314.892883,185.196030 315.139648,185.153748 
	C314.718201,181.461365 314.296722,177.768997 314.030396,173.428360 
M177.942566,324.678955 
	C176.551346,326.176971 175.160126,327.674988 173.079239,329.915588 
	C177.757431,330.152588 178.964050,328.375977 179.717682,325.260315 
	C179.834961,324.491608 179.952240,323.722931 180.069519,322.954224 
	C179.527039,323.642090 178.984558,324.329987 177.942566,324.678955 
M288.912445,357.336273 
	C288.912445,356.697113 288.912445,356.057922 288.912445,353.944580 
	C287.894562,356.247345 287.512360,357.112000 286.436737,358.112091 
	C285.280670,359.048981 284.124634,359.985901 282.968567,360.922821 
	C283.318359,361.374146 283.668121,361.825470 284.017914,362.276794 
	C285.170837,360.128632 289.888245,363.106598 288.912445,357.336273 
M328.032349,189.650528 
	C328.874573,188.717972 329.716797,187.785400 331.107880,186.245102 
	C326.964020,186.408539 321.816559,189.752075 321.329559,192.424423 
	C321.001801,194.223007 321.720459,196.212280 322.008484,198.401352 
	C324.251434,195.094345 325.912048,192.645996 328.032349,189.650528 
M315.019318,325.184418 
	C313.516174,326.092438 312.013062,327.000458 310.474976,327.929596 
	C315.605011,333.662811 315.605011,333.662811 319.691956,328.079559 
	C318.292358,326.986572 316.893463,325.894135 315.019318,325.184418 
M342.559235,321.567688 
	C343.035492,320.144775 343.511780,318.721832 343.988037,317.298920 
	C343.619598,317.069061 343.251190,316.839172 342.882751,316.609314 
	C341.565521,319.049347 340.248260,321.489380 338.931030,323.929382 
	C339.120361,324.196503 339.309692,324.463623 339.499023,324.730743 
	C340.517426,323.885712 341.535858,323.040649 342.559235,321.567688 
M365.175964,240.021378 
	C365.021088,238.876007 364.866211,237.730652 364.711334,236.585281 
	C364.346405,236.690704 363.981506,236.796127 363.616577,236.901550 
	C364.139191,238.129974 364.661774,239.358383 365.175964,240.021378 
M267.143250,150.822174 
	C267.408325,149.636261 267.673370,148.450333 267.938416,147.264420 
	C267.416687,147.287003 266.894928,147.309586 266.373169,147.332184 
	C266.569916,148.759918 266.766663,150.187653 267.143250,150.822174 
M167.009552,166.480408 
	C167.872574,166.355469 168.735580,166.230515 170.178711,166.021576 
	C168.768555,165.946457 167.953537,165.903046 167.009552,166.480408 
M134.675415,280.587708 
	C135.174454,281.239807 135.673508,281.891937 136.172562,282.544037 
	C136.376724,282.337158 136.771805,281.963898 136.757431,281.947388 
	C136.243973,281.358032 135.692230,280.802063 134.675415,280.587708 
M348.211975,312.852783 
	C348.199188,312.447540 348.186401,312.042328 348.173584,311.637085 
	C347.836487,312.181366 347.499390,312.725647 347.162292,313.269958 
	C347.428284,313.286072 347.694244,313.302216 348.211975,312.852783 
M324.038483,340.716736 
	C324.448883,340.062897 324.859253,339.409027 325.269653,338.755188 
	C324.878571,338.570190 324.487457,338.385223 324.096344,338.200226 
	C323.850983,339.173492 323.605591,340.146729 324.038483,340.716736 
M189.552414,158.833389 
	C189.025620,158.815079 188.496780,158.771896 187.974930,158.814377 
	C187.918594,158.818954 187.902664,159.320221 187.867981,159.591095 
	C188.415085,159.514389 188.962189,159.437698 189.552414,158.833389 
M153.384094,243.554794 
	C152.140274,243.345535 150.896454,243.136276 149.652634,242.927017 
	C149.615067,243.273209 149.577515,243.619385 149.539963,243.965576 
	C150.630997,243.965576 151.722046,243.965576 153.384094,243.554794 
M325.995728,169.415497 
	C325.932983,169.989807 325.870239,170.564102 325.807526,171.138428 
	C326.380554,170.845673 326.953552,170.552933 327.526581,170.260193 
	C327.233185,169.835205 326.939789,169.410217 325.995728,169.415497 
M182.730392,321.283630 
	C183.244003,320.377563 183.757614,319.471497 184.271210,318.565430 
	C183.850266,318.373199 183.429321,318.180969 183.008362,317.988739 
	C182.667862,319.052185 182.327347,320.115631 182.730392,321.283630 
M288.389618,335.532043 
	C287.386749,335.326172 286.383850,335.120300 285.380981,334.914429 
	C285.340271,335.191986 285.299591,335.469543 285.258911,335.747101 
	C286.109894,335.810089 286.960907,335.873077 288.389618,335.532043 
M171.917770,336.327911 
	C172.092636,335.645142 172.267502,334.962341 172.442368,334.279572 
	C172.140884,334.223358 171.839417,334.167114 171.537933,334.110870 
	C171.464279,334.953430 171.390640,335.795990 171.917770,336.327911 
M183.986908,329.655365 
	C184.425888,329.334930 184.864853,329.014465 185.303818,328.694000 
	C185.209641,328.574707 185.041779,328.345337 185.031891,328.351990 
	C184.579590,328.654694 184.141129,328.978027 183.986908,329.655365 
M363.466553,259.470764 
	C364.384583,259.619690 365.302643,259.768646 366.220673,259.917603 
	C366.244781,259.636139 366.268860,259.354706 366.292969,259.073273 
	C365.523132,259.073273 364.753296,259.073273 363.466553,259.470764 
M210.197311,139.750443 
	C210.419327,140.160599 210.641357,140.570755 210.863388,140.980911 
	C211.252258,140.636505 211.641144,140.292099 212.030014,139.947693 
	C211.606720,139.699905 211.183426,139.452103 210.197311,139.750443 
M344.902405,314.846985 
	C345.031219,314.762573 345.176300,314.694214 345.282135,314.587067 
	C345.336792,314.531769 345.321716,314.407562 345.338135,314.314484 
	C344.666382,314.272766 343.994629,314.231049 343.322876,314.189331 
	C343.615723,314.466736 343.908539,314.744141 344.902405,314.846985 
M214.086304,359.102966 
	C213.524673,359.150635 212.963043,359.198273 212.401413,359.245941 
	C212.417557,359.467865 212.433701,359.689819 212.449844,359.911743 
	C213.144058,359.785065 213.838257,359.658386 214.086304,359.102966 
M291.736938,359.248627 
	C291.605530,359.079102 291.474091,358.909607 291.342712,358.740082 
	C291.374573,358.977814 291.406433,359.215515 291.736938,359.248627 
M210.261444,358.056915 
	C209.916046,358.216705 209.570633,358.376495 209.225220,358.536285 
	C209.712051,358.531769 210.198868,358.527252 210.261444,358.056915 
M191.323914,326.862305 
	C191.394409,326.821045 191.464905,326.779755 191.323914,326.862305 
M185.323120,351.861725 
	C185.393967,351.820221 185.464813,351.778748 185.323120,351.861725 
M289.805817,139.770645 
	C289.979065,139.639816 290.152344,139.508972 290.325623,139.378143 
	C290.084534,139.406967 289.843445,139.435776 289.805817,139.770645 
M211.296951,338.658051 
	C211.456802,339.075653 211.616669,339.493286 211.776505,339.910889 
	C211.852158,339.544006 211.927795,339.177094 211.296951,338.658051 
M320.919006,341.900421 
	C320.717072,341.806671 320.515167,341.712921 320.313232,341.619171 
	C320.303101,342.014526 320.292999,342.409912 320.282867,342.805298 
	C320.511292,342.720795 320.739685,342.636322 320.919006,341.900421 
M286.824768,342.805145 
	C286.570465,342.904022 286.316162,343.002899 286.061859,343.101746 
	C286.313263,343.194000 286.564636,343.286255 286.824768,342.805145 
M337.223511,279.278107 
	C337.744904,279.460388 338.262054,279.660278 338.796204,279.789978 
	C338.837067,279.799866 338.998444,279.313477 339.103790,279.057770 
	C338.709625,278.945831 338.315430,278.833893 337.223511,279.278107 
M185.288376,160.855499 
	C185.367813,160.807816 185.447250,160.760132 185.288376,160.855499 
M176.565201,167.515259 
	C176.565201,167.515259 176.479507,167.562073 176.565201,167.515259 
M180.488983,155.910919 
	C180.563126,155.707214 180.637268,155.503525 180.711411,155.299820 
	C180.504211,155.362579 180.297012,155.425339 180.488983,155.910919 
M133.511353,276.715668 
	C133.608292,276.638062 133.771423,276.569458 133.783524,276.480316 
	C133.795624,276.391357 133.656403,276.281860 133.583542,276.181366 
	C133.486603,276.259064 133.389664,276.336761 133.511353,276.715668 
M183.490829,162.605713 
	C183.490829,162.605713 183.407608,162.474960 183.490829,162.605713 
M285.897400,345.455200 
	C285.715973,345.380768 285.534546,345.306366 285.353088,345.231934 
	C285.405090,345.431519 285.457092,345.631104 285.897400,345.455200 
M180.412842,165.478973 
	C180.412842,165.478973 180.511459,165.422028 180.412842,165.478973 
M147.516281,189.107605 
	C147.439590,189.320496 147.362885,189.533401 147.286179,189.746277 
	C147.493484,189.682526 147.700790,189.618774 147.516281,189.107605 
M307.358978,154.475266 
	C307.358978,154.475266 307.558716,154.585541 307.558716,154.585541 
	C307.558716,154.585541 307.526855,154.357498 307.358978,154.475266 
M304.099731,323.489014 
	C304.297546,323.562256 304.495361,323.635498 304.693176,323.708710 
	C304.632874,323.505798 304.572571,323.302917 304.099731,323.489014 
M287.519073,149.382294 
	C287.519073,149.382294 287.411194,149.577240 287.411194,149.577240 
	C287.411194,149.577240 287.623749,149.547424 287.519073,149.382294 
M283.521484,336.430176 
	C283.521484,336.430176 283.574249,336.521515 283.521484,336.430176 
M210.200409,337.483093 
	C210.422333,337.500916 210.644241,337.518707 210.866180,337.536530 
	C210.763611,337.422821 210.661041,337.309113 210.200409,337.483093 
M324.900482,303.512573 
	C324.702515,303.439606 324.504578,303.366638 324.306610,303.293671 
	C324.367096,303.496124 324.427551,303.698578 324.900482,303.512573 
M171.610092,341.517517 
	C171.610092,341.517517 171.475662,341.603424 171.610092,341.517517 
z"/>
<path fill="#434343" opacity="1.000000" stroke="none" 
	d="
M327.802490,189.924088 
	C325.912048,192.645996 324.251434,195.094345 322.008484,198.401352 
	C321.720459,196.212280 321.001801,194.223007 321.329559,192.424423 
	C321.816559,189.752075 326.964020,186.408539 331.107880,186.245102 
	C329.716797,187.785400 328.874573,188.717972 327.802490,189.924088 
z"/>
<path fill="#434343" opacity="1.000000" stroke="none" 
	d="
M315.256958,324.993042 
	C316.893463,325.894135 318.292358,326.986572 319.691956,328.079559 
	C315.605011,333.662811 315.605011,333.662811 310.474976,327.929596 
	C312.013062,327.000458 313.516174,326.092438 315.256958,324.993042 
z"/>
<path fill="#434343" opacity="1.000000" stroke="none" 
	d="
M342.556763,321.881653 
	C341.535858,323.040649 340.517426,323.885712 339.499023,324.730743 
	C339.309692,324.463623 339.120361,324.196503 338.931030,323.929382 
	C340.248260,321.489380 341.565521,319.049347 342.882751,316.609314 
	C343.251190,316.839172 343.619598,317.069061 343.988037,317.298920 
	C343.511780,318.721832 343.035492,320.144775 342.556763,321.881653 
z"/>
<path fill="#0A0A0A" opacity="1.000000" stroke="none" 
	d="
M195.119476,343.630402 
	C194.271103,345.277710 193.422760,346.925049 192.310745,349.084351 
	C190.702698,347.858063 189.646622,347.052704 188.261078,345.996094 
	C190.085526,345.000732 191.519409,344.218414 193.517334,343.142670 
	C194.427414,343.109619 194.773438,343.369995 195.119476,343.630402 
z"/>
<path fill="#292929" opacity="1.000000" stroke="none" 
	d="
M288.815948,357.758301 
	C289.888245,363.106598 285.170837,360.128632 284.017914,362.276794 
	C283.668121,361.825470 283.318359,361.374146 282.968567,360.922821 
	C284.124634,359.985901 285.280670,359.048981 287.066315,358.021606 
	C288.069244,357.873474 288.442596,357.815887 288.815948,357.758301 
z"/>
<path fill="#292929" opacity="1.000000" stroke="none" 
	d="
M178.982971,325.359283 
	C178.964050,328.375977 177.757431,330.152588 173.079239,329.915588 
	C175.160126,327.674988 176.551346,326.176971 178.366089,324.872681 
	C178.789627,325.066437 178.982971,325.359283 178.982971,325.359283 
z"/>
<path fill="#1A1A1A" opacity="1.000000" stroke="none" 
	d="
M303.027039,162.442581 
	C301.656403,164.463379 300.285767,166.484161 298.915131,168.504959 
	C298.373199,168.080246 297.831268,167.655533 297.289337,167.230820 
	C298.485352,165.597382 299.681366,163.963928 301.570068,162.206955 
	C302.517487,162.203140 302.772247,162.322861 303.027039,162.442581 
z"/>
<path fill="#C9C9C9" opacity="1.000000" stroke="none" 
	d="
M313.102020,181.907104 
	C313.038574,179.568970 312.975159,177.230835 313.152710,174.468506 
	C313.393707,174.044296 313.875275,174.076614 313.875275,174.076614 
	C314.296722,177.768997 314.718201,181.461365 315.139648,185.153748 
	C314.892883,185.196030 314.646118,185.238327 314.399353,185.280609 
	C314.202942,184.195999 314.006531,183.111389 313.408875,181.981857 
	C313.007629,181.936935 313.102020,181.907104 313.102020,181.907104 
z"/>
<path fill="#8E8E8E" opacity="1.000000" stroke="none" 
	d="
M266.023804,154.973984 
	C265.731964,156.536484 265.440125,158.098984 265.148285,159.661484 
	C264.690796,159.598740 264.233337,159.535980 263.775848,159.473221 
	C263.944763,158.022491 264.113708,156.571762 264.857971,155.015976 
	C265.630157,154.931946 265.826996,154.952972 266.023804,154.973984 
z"/>
<path fill="#C9C9C9" opacity="1.000000" stroke="none" 
	d="
M308.116486,321.740540 
	C308.754822,321.654968 309.393158,321.569366 309.962708,321.492981 
	C308.617432,321.860565 307.168854,322.256378 306.076996,322.354767 
	C306.994659,321.951752 307.555573,321.846130 308.116486,321.740540 
z"/>
<path fill="#BFBFBF" opacity="1.000000" stroke="none" 
	d="
M175.748428,159.644379 
	C176.980148,159.060959 178.211884,158.477554 179.443619,157.894135 
	C179.435043,157.875885 179.426483,157.857635 179.417923,157.839371 
	C178.314224,158.386597 177.210541,158.933807 176.048172,159.708832 
	C175.989502,159.936630 175.748428,159.644379 175.748428,159.644379 
z"/>
<path fill="#BFBFBF" opacity="1.000000" stroke="none" 
	d="
M339.915527,303.035583 
	C339.983612,302.327454 340.051666,301.619293 340.143829,300.660492 
	C340.476929,301.545898 340.724945,302.205200 340.607544,302.965088 
	C340.242126,303.065704 339.915558,303.035583 339.915527,303.035583 
z"/>
<path fill="#B8B8B8" opacity="1.000000" stroke="none" 
	d="
M144.417633,197.509537 
	C145.223145,196.203186 146.028656,194.896835 147.355835,193.366241 
	C148.122665,193.194672 148.367813,193.247314 148.612961,193.299973 
	C147.740646,194.982941 146.868332,196.665924 145.489288,198.248505 
	C144.794266,197.935257 144.605957,197.722397 144.417633,197.509537 
z"/>
<path fill="#C9C9C9" opacity="1.000000" stroke="none" 
	d="
M159.037048,196.013672 
	C159.346695,195.544922 159.656342,195.076157 160.264374,194.268280 
	C160.743332,193.893341 160.923904,193.857513 161.104492,193.821686 
	C160.230087,195.135300 159.355682,196.448914 158.625076,197.339752 
	C159.017014,196.663010 159.106400,196.361908 159.037048,196.013672 
z"/>
<path fill="#8E8E8E" opacity="1.000000" stroke="none" 
	d="
M360.004944,227.987274 
	C360.316589,225.844299 360.628235,223.701324 361.013000,221.155807 
	C361.086151,220.753265 361.083160,220.802139 361.083191,220.802139 
	C361.477234,222.013596 361.871307,223.225052 362.081482,224.798370 
	C361.681274,225.503189 361.464996,225.846146 361.248718,226.189117 
	C361.193909,226.589508 361.139069,226.989899 360.791992,227.742920 
	C360.334808,228.059433 360.169861,228.023346 360.004944,227.987274 
z"/>
<path fill="#434343" opacity="1.000000" stroke="none" 
	d="
M161.265106,193.573700 
	C160.923904,193.857513 160.743332,193.893341 160.290802,193.977249 
	C160.660339,192.927200 161.301804,191.829086 161.943283,190.730972 
	C162.403580,191.093887 162.863876,191.456802 163.324173,191.819702 
	C162.691360,192.321716 162.058533,192.823715 161.265106,193.573700 
z"/>
<path fill="#292929" opacity="1.000000" stroke="none" 
	d="
M313.786407,345.803528 
	C314.905609,342.426025 316.219482,343.876617 318.186890,346.419891 
	C316.631500,346.419891 315.710754,346.419891 314.396454,346.210388 
	C314.002899,346.000854 313.786407,345.803528 313.786407,345.803528 
z"/>
<path fill="#BFBFBF" opacity="1.000000" stroke="none" 
	d="
M218.230835,138.164841 
	C216.610886,138.883194 214.990936,139.601547 213.370987,140.319901 
	C213.211105,140.052094 213.051239,139.784271 212.891373,139.516464 
	C213.342316,139.031830 213.793259,138.547195 215.088684,137.913055 
	C216.699036,137.897308 217.464935,138.031067 218.230835,138.164841 
z"/>
<path fill="#292929" opacity="1.000000" stroke="none" 
	d="
M220.018463,136.937881 
	C221.037079,136.042603 222.055695,135.147308 223.074326,134.252029 
	C223.359390,134.759430 223.644455,135.266846 223.929520,135.774261 
	C222.836166,136.189301 221.742813,136.604355 220.320724,137.004395 
	C219.991989,136.989395 220.018463,136.937881 220.018463,136.937881 
z"/>
<path fill="#777777" opacity="1.000000" stroke="none" 
	d="
M156.902451,267.183533 
	C158.039627,266.693298 159.176819,266.203064 160.313995,265.712799 
	C160.518372,266.375427 160.722748,267.038025 160.927124,267.700623 
	C159.867691,267.783264 158.808273,267.865906 157.311859,267.756775 
	C156.874893,267.565033 156.902451,267.183533 156.902451,267.183533 
z"/>
<path fill="#777777" opacity="1.000000" stroke="none" 
	d="
M313.952820,173.752487 
	C313.875275,174.076614 313.393707,174.044296 313.153381,174.022247 
	C312.585144,173.050873 312.257202,172.101532 311.929260,171.152206 
	C312.277496,171.019974 312.625732,170.887741 312.973969,170.755508 
	C313.326111,171.646454 313.678253,172.537415 313.952820,173.752487 
z"/>
<path fill="#8E8E8E" opacity="1.000000" stroke="none" 
	d="
M133.931488,269.011108 
	C134.437881,270.755096 134.944275,272.499084 135.450668,274.243073 
	C135.147705,274.336823 134.844742,274.430542 134.541779,274.524292 
	C134.313614,273.942505 134.085434,273.360748 133.765930,272.126038 
	C133.328552,271.372101 132.982529,271.271088 132.636490,271.170074 
	C132.763062,270.685455 132.889633,270.200836 133.273880,269.356995 
	C133.531570,268.997803 133.931488,269.011108 133.931488,269.011108 
z"/>
<path fill="#8E8E8E" opacity="1.000000" stroke="none" 
	d="
M347.502319,255.875244 
	C349.111725,255.875244 350.721100,255.875244 352.330505,255.875244 
	C352.301147,256.261658 352.271820,256.648071 352.242493,257.034485 
	C350.829834,256.814819 349.417206,256.595154 347.739380,256.123138 
	C347.474243,255.870804 347.502319,255.875244 347.502319,255.875244 
z"/>
<path fill="#B8B8B8" opacity="1.000000" stroke="none" 
	d="
M221.939911,160.966949 
	C222.709915,160.620819 223.479935,160.274689 224.964172,159.927643 
	C226.184128,159.984879 226.689850,160.043015 227.195587,160.101166 
	C225.737488,160.717972 224.279388,161.334793 222.443100,161.693466 
	C222.064911,161.435333 221.939911,160.966965 221.939911,160.966949 
z"/>
<path fill="#B8B8B8" opacity="1.000000" stroke="none" 
	d="
M322.782410,308.939880 
	C322.157410,309.917633 321.532379,310.895355 320.907379,311.873108 
	C320.594910,311.702972 320.282440,311.532837 319.970001,311.362732 
	C320.444763,310.329773 320.919556,309.296814 321.782776,308.273071 
	C322.307922,308.563812 322.511658,308.783020 322.782410,308.939880 
z"/>
<path fill="#8E8E8E" opacity="1.000000" stroke="none" 
	d="
M365.180176,240.304077 
	C364.661774,239.358383 364.139191,238.129974 363.616577,236.901550 
	C363.981506,236.796127 364.346405,236.690704 364.711334,236.585281 
	C364.866211,237.730652 365.021088,238.876007 365.180176,240.304077 
z"/>
<path fill="#292929" opacity="1.000000" stroke="none" 
	d="
M309.919281,349.188049 
	C311.007477,348.152527 312.095673,347.117004 313.485168,345.942505 
	C313.786407,345.803528 314.002899,346.000854 314.114807,346.098450 
	C313.024719,347.174072 311.822693,348.152039 310.284424,349.099915 
	C309.948120,349.069824 309.919281,349.188049 309.919281,349.188049 
z"/>
<path fill="#BFBFBF" opacity="1.000000" stroke="none" 
	d="
M267.053345,151.218781 
	C266.766663,150.187653 266.569916,148.759918 266.373169,147.332184 
	C266.894928,147.309586 267.416687,147.287003 267.938416,147.264420 
	C267.673370,148.450333 267.408325,149.636261 267.053345,151.218781 
z"/>
<path fill="#0A0A0A" opacity="1.000000" stroke="none" 
	d="
M197.997772,337.961304 
	C198.441681,337.165802 198.885590,336.370331 199.329498,335.574860 
	C199.703186,335.813904 200.076859,336.052979 200.450531,336.292023 
	C200.074127,336.877777 199.697708,337.463501 198.803314,338.167236 
	C198.285339,338.285187 197.997772,337.961304 197.997772,337.961304 
z"/>
<path fill="#777777" opacity="1.000000" stroke="none" 
	d="
M361.025513,220.402832 
	C361.083160,220.802139 361.086151,220.753265 361.105621,220.760010 
	C356.736298,220.373276 359.646240,218.882355 360.785126,217.666031 
	C360.846008,218.445190 360.906921,219.224365 361.025513,220.402832 
z"/>
<path fill="#BFBFBF" opacity="1.000000" stroke="none" 
	d="
M349.598297,307.334534 
	C350.033539,307.795898 350.468781,308.257263 350.904053,308.718597 
	C350.312073,308.825928 349.720062,308.933228 348.932922,308.867310 
	C348.525818,308.786469 348.313904,308.878876 348.102020,308.971252 
	C347.880402,308.628998 347.658813,308.286713 347.753296,307.447754 
	C348.069397,306.951080 347.963745,306.976349 347.963745,306.976379 
	C348.242493,307.028839 348.521210,307.081329 349.168335,307.131165 
	C349.536743,307.128510 349.598297,307.334534 349.598297,307.334534 
z"/>
<path fill="#8E8E8E" opacity="1.000000" stroke="none" 
	d="
M288.864197,357.547302 
	C288.442596,357.815887 288.069244,357.873474 287.413025,357.953888 
	C287.512360,357.112000 287.894562,356.247345 288.912445,353.944580 
	C288.912445,356.057922 288.912445,356.697113 288.864197,357.547302 
z"/>
<path fill="#B8B8B8" opacity="1.000000" stroke="none" 
	d="
M167.074036,166.170013 
	C167.953537,165.903046 168.768555,165.946457 170.178711,166.021576 
	C168.735580,166.230515 167.872574,166.355469 167.074036,166.170013 
z"/>
<path fill="#1A1A1A" opacity="1.000000" stroke="none" 
	d="
M134.910614,280.414551 
	C135.692230,280.802063 136.243973,281.358032 136.757431,281.947388 
	C136.771805,281.963898 136.376724,282.337158 136.172546,282.544037 
	C135.673508,281.891937 135.174454,281.239807 134.910614,280.414551 
z"/>
<path fill="#DBDBDB" opacity="1.000000" stroke="none" 
	d="
M208.919800,140.813293 
	C207.767731,142.032379 206.615662,143.251480 205.463608,144.470566 
	C205.231308,144.357010 204.999023,144.243454 204.766724,144.129898 
	C205.261185,143.146240 205.755661,142.162582 207.075577,141.038605 
	C208.240616,140.869949 208.580215,140.841629 208.919800,140.813293 
z"/>
<path fill="#777777" opacity="1.000000" stroke="none" 
	d="
M348.086121,313.085571 
	C347.694244,313.302216 347.428284,313.286072 347.162292,313.269958 
	C347.499390,312.725647 347.836487,312.181366 348.173584,311.637085 
	C348.186401,312.042328 348.199188,312.447540 348.086121,313.085571 
z"/>
<path fill="#434343" opacity="1.000000" stroke="none" 
	d="
M132.907669,267.046204 
	C132.585114,266.426270 132.262558,265.806366 131.940002,265.186432 
	C132.599411,265.336182 133.258804,265.485931 133.680939,266.009155 
	C133.290131,266.624115 133.111481,266.845306 132.907669,267.046204 
z"/>
<path fill="#BFBFBF" opacity="1.000000" stroke="none" 
	d="
M156.539459,267.054169 
	C156.902451,267.183533 156.874893,267.565033 156.916168,267.751801 
	C156.030167,268.246185 155.102890,268.553772 153.840637,268.956482 
	C153.505661,269.051544 153.568481,268.977417 153.568481,268.977417 
	C153.728531,268.663483 153.888565,268.349548 153.844452,267.530365 
	C153.640305,267.025116 153.637665,266.956848 153.637665,266.956848 
	C154.483932,266.946167 155.330200,266.935486 156.539459,267.054169 
z"/>
<path fill="#DBDBDB" opacity="1.000000" stroke="none" 
	d="
M323.699341,340.918335 
	C323.605591,340.146729 323.850983,339.173492 324.096344,338.200226 
	C324.487457,338.385223 324.878571,338.570190 325.269653,338.755188 
	C324.859253,339.409027 324.448883,340.062897 323.699341,340.918335 
z"/>
<path fill="#1A1A1A" opacity="1.000000" stroke="none" 
	d="
M350.005859,307.201416 
	C349.598297,307.334534 349.536743,307.128510 349.520020,307.147278 
	C349.380524,306.120178 349.257721,305.074341 349.134949,304.028473 
	C349.561096,304.008545 349.987274,303.988617 350.413452,303.968658 
	C350.413452,305.001892 350.413452,306.035095 350.005859,307.201416 
z"/>
<path fill="#1A1A1A" opacity="1.000000" stroke="none" 
	d="
M347.293121,255.511658 
	C347.502319,255.875244 347.474243,255.870804 347.502014,255.887939 
	C346.040924,255.468353 344.552094,255.031662 343.063232,254.594955 
	C343.161957,254.325409 343.260681,254.055862 343.359406,253.786316 
	C344.600922,254.240250 345.842407,254.694168 347.293121,255.511658 
z"/>
<path fill="#C9C9C9" opacity="1.000000" stroke="none" 
	d="
M303.362915,162.399902 
	C302.772247,162.322861 302.517487,162.203140 301.841675,162.051361 
	C302.314819,160.997330 303.209045,159.975372 304.550781,159.017715 
	C304.998260,159.082016 305.066467,159.483353 305.066467,159.483353 
	C304.610596,160.441315 304.154724,161.399277 303.362915,162.399902 
z"/>
<path fill="#292929" opacity="1.000000" stroke="none" 
	d="
M218.215759,138.115570 
	C217.464935,138.031067 216.699036,137.897308 215.442734,137.798370 
	C215.783234,137.388809 216.614120,136.944412 217.455307,136.996277 
	C217.676361,137.686218 217.887115,137.879929 218.097885,138.073654 
	C218.097885,138.073654 218.200684,138.066299 218.215759,138.115570 
z"/>
<path fill="#BFBFBF" opacity="1.000000" stroke="none" 
	d="
M148.829666,193.066833 
	C148.367813,193.247314 148.122665,193.194672 147.508301,193.070374 
	C147.804947,192.290451 148.470825,191.582199 149.136688,190.873932 
	C149.106583,191.527191 149.076477,192.180450 148.829666,193.066833 
z"/>
<path fill="#0A0A0A" opacity="1.000000" stroke="none" 
	d="
M189.530853,159.097198 
	C188.962189,159.437698 188.415085,159.514389 187.867981,159.591095 
	C187.902664,159.320221 187.918594,158.818954 187.974930,158.814377 
	C188.496780,158.771896 189.025620,158.815079 189.530853,159.097198 
z"/>
<path fill="#8E8E8E" opacity="1.000000" stroke="none" 
	d="
M153.098587,243.760193 
	C151.722046,243.965576 150.630997,243.965576 149.539963,243.965576 
	C149.577515,243.619385 149.615067,243.273209 149.652634,242.927017 
	C150.896454,243.136276 152.140274,243.345535 153.098587,243.760193 
z"/>
<path fill="#DBDBDB" opacity="1.000000" stroke="none" 
	d="
M326.321075,169.200363 
	C326.939789,169.410217 327.233185,169.835205 327.526581,170.260193 
	C326.953552,170.552933 326.380554,170.845673 325.807526,171.138428 
	C325.870239,170.564102 325.932983,169.989807 326.321075,169.200363 
z"/>
<path fill="#BFBFBF" opacity="1.000000" stroke="none" 
	d="
M184.417313,154.089249 
	C183.496124,154.259460 182.574936,154.429672 182.083740,154.288239 
	C182.726654,153.710571 182.939560,153.444550 183.152466,153.178528 
	C183.152481,153.178543 183.000000,153.000000 183.310303,153.210052 
	C183.886169,153.643143 184.151733,153.866196 184.417313,154.089249 
z"/>
<path fill="#DBDBDB" opacity="1.000000" stroke="none" 
	d="
M182.358612,321.231323 
	C182.327347,320.115631 182.667862,319.052185 183.008362,317.988739 
	C183.429321,318.180969 183.850266,318.373199 184.271210,318.565430 
	C183.757614,319.471497 183.244003,320.377563 182.358612,321.231323 
z"/>
<path fill="#DBDBDB" opacity="1.000000" stroke="none" 
	d="
M305.626648,157.945465 
	C305.835785,157.209915 306.044952,156.474365 306.254089,155.738815 
	C306.707336,155.867737 307.160583,155.996658 307.613831,156.125580 
	C307.448181,156.663391 307.282532,157.201202 306.606201,157.862976 
	C306.095551,157.986938 305.626617,157.945465 305.626648,157.945465 
z"/>
<path fill="#C9C9C9" opacity="1.000000" stroke="none" 
	d="
M288.100769,335.734070 
	C286.960907,335.873077 286.109894,335.810089 285.258911,335.747101 
	C285.299591,335.469543 285.340271,335.191986 285.380981,334.914429 
	C286.383850,335.120300 287.386749,335.326172 288.100769,335.734070 
z"/>
<path fill="#DBDBDB" opacity="1.000000" stroke="none" 
	d="
M197.724792,338.090027 
	C197.997772,337.961304 198.285339,338.285187 198.487335,338.207275 
	C198.461792,338.850525 198.234238,339.571625 197.638870,340.290344 
	C197.143707,340.158966 197.016373,340.029999 196.889053,339.901031 
	C197.076645,339.340271 197.264236,338.779541 197.724792,338.090027 
z"/>
<path fill="#DBDBDB" opacity="1.000000" stroke="none" 
	d="
M171.617371,336.483215 
	C171.390640,335.795990 171.464279,334.953430 171.537933,334.110870 
	C171.839417,334.167114 172.140884,334.223358 172.442352,334.279572 
	C172.267502,334.962341 172.092636,335.645142 171.617371,336.483215 
z"/>
<path fill="#8E8E8E" opacity="1.000000" stroke="none" 
	d="
M358.092560,257.854675 
	C356.895142,257.854675 355.697723,257.854675 354.500305,257.854675 
	C354.516205,257.597565 354.532104,257.340485 354.548004,257.083374 
	C355.573059,257.201813 356.598145,257.320282 357.860748,257.677795 
	C358.098297,257.916901 358.092560,257.854675 358.092560,257.854675 
z"/>
<path fill="#0A0A0A" opacity="1.000000" stroke="none" 
	d="
M183.843964,329.477173 
	C184.141129,328.978027 184.579590,328.654694 185.031891,328.351990 
	C185.041779,328.345337 185.209641,328.574707 185.303818,328.694000 
	C184.864853,329.014465 184.425888,329.334930 183.843964,329.477173 
z"/>
<path fill="#B8B8B8" opacity="1.000000" stroke="none" 
	d="
M349.122314,272.725403 
	C348.405365,272.900330 347.688385,273.075256 346.971436,273.250153 
	C347.447540,272.584381 347.923615,271.918579 348.743591,271.595947 
	C349.099121,272.201233 349.110718,272.463318 349.122314,272.725403 
z"/>
<path fill="#B8B8B8" opacity="1.000000" stroke="none" 
	d="
M267.088074,355.675842 
	C267.002960,356.347687 266.917847,357.019501 266.832703,357.691345 
	C266.541077,357.640839 266.249451,357.590332 265.957825,357.539795 
	C266.100616,356.460052 266.243439,355.380310 266.722717,354.541565 
	C267.068787,355.080292 267.078430,355.378052 267.088074,355.675842 
z"/>
<path fill="#434343" opacity="1.000000" stroke="none" 
	d="
M308.022034,321.371155 
	C307.555573,321.846130 306.994659,321.951752 306.211853,322.020813 
	C306.635834,321.656738 307.281677,321.329254 308.022034,321.371155 
z"/>
<path fill="#DBDBDB" opacity="1.000000" stroke="none" 
	d="
M322.903259,304.945190 
	C323.441437,305.028076 323.979645,305.110962 324.517822,305.193848 
	C324.283966,305.847107 324.050140,306.500366 323.255493,306.895447 
	C322.764191,306.073212 322.833710,305.509216 322.903259,304.945190 
z"/>
<path fill="#B8B8B8" opacity="1.000000" stroke="none" 
	d="
M188.616913,317.844727 
	C187.416656,318.055145 186.216400,318.265533 185.016144,318.475952 
	C184.960968,318.094574 184.905792,317.713196 184.850616,317.331818 
	C185.823105,317.228210 186.795593,317.124603 188.187347,317.262329 
	C188.606628,317.503632 188.616913,317.844727 188.616913,317.844727 
z"/>
<path fill="#8E8E8E" opacity="1.000000" stroke="none" 
	d="
M363.725006,259.272034 
	C364.753296,259.073273 365.523132,259.073273 366.292969,259.073273 
	C366.268860,259.354706 366.244781,259.636139 366.220673,259.917603 
	C365.302643,259.768646 364.384583,259.619690 363.725006,259.272034 
z"/>
<path fill="#434343" opacity="1.000000" stroke="none" 
	d="
M338.837921,235.856567 
	C339.341827,235.535507 339.845734,235.214462 340.349640,234.893402 
	C340.175903,235.332687 340.002136,235.771957 339.453705,236.151917 
	C339.079010,236.092590 338.837921,235.856552 338.837921,235.856567 
z"/>
<path fill="#BFBFBF" opacity="1.000000" stroke="none" 
	d="
M221.125351,162.060974 
	C220.486389,162.233795 219.847427,162.406601 219.208466,162.579407 
	C219.554443,162.038193 219.900421,161.496979 220.613464,161.261429 
	C221.028793,161.731705 221.077072,161.896332 221.125351,162.060974 
z"/>
<path fill="#BFBFBF" opacity="1.000000" stroke="none" 
	d="
M270.070374,140.856232 
	C269.934937,141.555054 269.799530,142.253876 269.112244,143.007156 
	C268.376404,143.034943 268.192444,143.008270 268.008484,142.981598 
	C268.040222,142.556046 268.071991,142.130478 268.476593,141.397766 
	C269.256409,141.012482 269.663391,140.934357 270.070374,140.856232 
z"/>
<path fill="#B8B8B8" opacity="1.000000" stroke="none" 
	d="
M269.079071,143.791824 
	C268.754303,144.566574 268.429535,145.341324 268.104797,146.116074 
	C267.871857,145.511429 267.638885,144.906784 267.962280,144.095642 
	C268.705444,143.856705 268.892273,143.824265 269.079071,143.791824 
z"/>
<path fill="#BFBFBF" opacity="1.000000" stroke="none" 
	d="
M176.121002,160.072968 
	C175.793335,160.933334 175.334183,161.657379 174.875015,162.381409 
	C174.559525,162.121429 174.244019,161.861450 173.928528,161.601471 
	C174.303925,160.949203 174.679337,160.296951 175.401581,159.644531 
	C175.748428,159.644379 175.989502,159.936630 176.121002,160.072968 
z"/>
<path fill="#8E8E8E" opacity="1.000000" stroke="none" 
	d="
M160.902832,180.011246 
	C159.724762,180.438400 158.546692,180.865570 157.368637,181.292740 
	C157.296768,180.842438 157.224899,180.392151 157.153046,179.941864 
	C158.143768,179.941864 159.134491,179.941864 160.555740,179.974365 
	C160.986267,180.006851 160.902832,180.011246 160.902832,180.011246 
z"/>
<path fill="#434343" opacity="1.000000" stroke="none" 
	d="
M184.629425,154.107452 
	C184.151733,153.866196 183.886169,153.643143 183.386200,153.299713 
	C183.560211,152.673981 183.968613,152.168625 184.639496,152.181854 
	C184.929901,152.944199 184.957794,153.187943 184.985687,153.431671 
	C184.985687,153.431671 185.149918,153.827652 185.149918,153.827652 
	C185.149918,153.827652 184.841522,154.125656 184.629425,154.107452 
z"/>
<path fill="#DBDBDB" opacity="1.000000" stroke="none" 
	d="
M185.359940,153.520142 
	C184.957794,153.187943 184.929901,152.944199 184.915421,152.332703 
	C185.389542,151.673264 185.850220,151.381561 186.649689,151.343231 
	C187.093811,151.744003 187.199188,151.891373 187.304565,152.038757 
	C186.781113,152.562042 186.257645,153.085327 185.359940,153.520142 
z"/>
<path fill="#BFBFBF" opacity="1.000000" stroke="none" 
	d="
M210.478729,139.477386 
	C211.183426,139.452103 211.606720,139.699905 212.030014,139.947693 
	C211.641144,140.292099 211.252258,140.636505 210.863388,140.980911 
	C210.641357,140.570755 210.419327,140.160599 210.478729,139.477386 
z"/>
<path fill="#C9C9C9" opacity="1.000000" stroke="none" 
	d="
M228.009583,159.083221 
	C228.918427,158.863831 229.827271,158.644440 230.736115,158.425049 
	C230.847351,158.639008 230.958572,158.852966 231.069809,159.066910 
	C230.266556,159.480591 229.463303,159.894257 228.315308,160.002411 
	C227.983582,159.492325 227.996582,159.287766 228.009583,159.083221 
z"/>
<path fill="#434343" opacity="1.000000" stroke="none" 
	d="
M227.153015,160.071945 
	C226.689850,160.043015 226.184128,159.984879 225.296112,159.877808 
	C225.471695,159.443832 226.029556,159.058746 226.740784,159.135620 
	C226.947067,159.774551 227.000000,159.951523 227.052948,160.128510 
	C227.052948,160.128510 227.110443,160.042725 227.153015,160.071945 
z"/>
<path fill="#0A0A0A" opacity="1.000000" stroke="none" 
	d="
M360.027954,228.276260 
	C360.169861,228.023346 360.334808,228.059433 360.747559,228.042953 
	C361.243683,228.670090 361.492065,229.349823 361.740448,230.029556 
	C361.519379,230.134354 361.298279,230.239166 361.077209,230.343964 
	C360.735107,229.751053 360.393036,229.158157 360.027954,228.276260 
z"/>
<path fill="#C9C9C9" opacity="1.000000" stroke="none" 
	d="
M188.013947,151.006088 
	C188.754868,151.006088 189.495804,151.006088 190.236725,151.006088 
	C190.273682,151.224899 190.310638,151.443726 190.347595,151.662537 
	C189.751678,151.810547 189.155746,151.958557 188.257553,151.817551 
	C187.974838,151.354370 187.994400,151.180237 188.013947,151.006088 
z"/>
<path fill="#B8B8B8" opacity="1.000000" stroke="none" 
	d="
M178.615845,325.042145 
	C178.984558,324.329987 179.527039,323.642090 180.069519,322.954224 
	C179.952240,323.722931 179.834961,324.491608 179.350327,325.309814 
	C178.982971,325.359283 178.789627,325.066437 178.615845,325.042145 
z"/>
<path fill="#434343" opacity="1.000000" stroke="none" 
	d="
M344.551880,314.934265 
	C343.908539,314.744141 343.615723,314.466736 343.322876,314.189331 
	C343.994629,314.231049 344.666382,314.272766 345.338135,314.314484 
	C345.321716,314.407562 345.336792,314.531769 345.282135,314.587067 
	C345.176300,314.694214 345.031219,314.762573 344.551880,314.934265 
z"/>
<path fill="#434343" opacity="1.000000" stroke="none" 
	d="
M322.597260,304.920441 
	C322.833710,305.509216 322.764191,306.073212 322.929993,306.993561 
	C323.165314,307.349884 323.068878,307.251526 322.835358,306.990967 
	C322.403412,306.823639 322.204987,306.916840 322.006561,307.010040 
	C322.101471,306.305267 322.196381,305.600464 322.597260,304.920441 
z"/>
<path fill="#C9C9C9" opacity="1.000000" stroke="none" 
	d="
M339.076080,304.049225 
	C338.734344,304.782227 338.392578,305.515228 338.050842,306.248230 
	C337.724152,306.087463 337.397491,305.926727 337.070801,305.765961 
	C337.451752,305.128387 337.832672,304.490845 338.617004,303.929932 
	C339.020386,304.006622 339.076080,304.049225 339.076080,304.049225 
z"/>
<path fill="#C9C9C9" opacity="1.000000" stroke="none" 
	d="
M145.061478,301.980438 
	C145.493454,301.376770 145.925446,300.773102 146.357422,300.169434 
	C146.556839,300.350891 146.756256,300.532349 146.955673,300.713806 
	C146.410751,301.094208 145.865845,301.474640 145.225616,302.095703 
	C145.130280,302.336334 145.061478,301.980438 145.061478,301.980438 
z"/>
<path fill="#777777" opacity="1.000000" stroke="none" 
	d="
M214.309387,359.317322 
	C213.838257,359.658386 213.144058,359.785065 212.449844,359.911743 
	C212.433701,359.689819 212.417557,359.467865 212.401413,359.245941 
	C212.963043,359.198273 213.524673,359.150635 214.309387,359.317322 
z"/>
<path fill="#DBDBDB" opacity="1.000000" stroke="none" 
	d="
M195.363052,343.589233 
	C194.773438,343.369995 194.427414,343.109619 193.757446,342.945618 
	C193.925140,342.586426 194.416779,342.130829 195.368362,341.722504 
	C195.973648,341.931458 196.119003,342.093140 196.264359,342.254822 
	C196.045120,342.685913 195.825867,343.117004 195.363052,343.589233 
z"/>
<path fill="#292929" opacity="1.000000" stroke="none" 
	d="
M270.148254,140.733856 
	C269.663391,140.934357 269.256409,141.012482 268.538757,141.080704 
	C268.042297,140.900345 267.856445,140.729889 267.670624,140.559448 
	C267.970276,140.376999 268.269928,140.194534 269.100037,140.034012 
	C269.773254,140.162125 269.916016,140.268326 270.058777,140.374512 
	C270.058777,140.374512 270.226105,140.611481 270.148254,140.733856 
z"/>
<path fill="#B8B8B8" opacity="1.000000" stroke="none" 
	d="
M132.106415,241.023575 
	C132.808136,240.732025 133.509872,240.440475 134.211594,240.148926 
	C134.118683,240.457214 134.025772,240.765518 133.327927,241.063477 
	C132.517471,241.043289 132.311951,241.033432 132.106415,241.023575 
z"/>
<path fill="#DBDBDB" opacity="1.000000" stroke="none" 
	d="
M132.028793,241.379181 
	C132.311951,241.033432 132.517471,241.043289 133.031036,241.071930 
	C133.167145,241.960922 132.995193,242.831131 132.548080,245.093704 
	C132.183609,243.042755 132.067398,242.388779 132.028793,241.379181 
z"/>
<path fill="#DBDBDB" opacity="1.000000" stroke="none" 
	d="
M349.458191,272.582672 
	C349.110718,272.463318 349.099121,272.201233 349.061829,271.546448 
	C349.674683,270.943085 350.313202,270.732391 350.951721,270.521729 
	C350.565857,271.161133 350.179962,271.800537 349.458191,272.582672 
z"/>
<path fill="#292929" opacity="1.000000" stroke="none" 
	d="
M153.538376,269.011780 
	C152.768188,269.359650 151.965286,269.747253 151.162369,270.134857 
	C151.054245,269.897583 150.946121,269.660309 150.837997,269.423004 
	C151.500259,269.262085 152.162521,269.101166 153.196625,268.958801 
	C153.568481,268.977417 153.505661,269.051544 153.538376,269.011780 
z"/>
<path fill="#B8B8B8" opacity="1.000000" stroke="none" 
	d="
M132.939484,267.366852 
	C133.111481,266.845306 133.290131,266.624115 133.637268,266.293854 
	C133.893600,266.906952 133.956345,267.608856 133.975281,268.660919 
	C133.931488,269.011108 133.531570,268.997803 133.332336,268.979431 
	C133.079178,268.536530 133.025238,268.112000 132.939484,267.366852 
z"/>
<path fill="#0A0A0A" opacity="1.000000" stroke="none" 
	d="
M189.011658,317.890167 
	C188.616913,317.844727 188.606628,317.503632 188.603104,317.333038 
	C189.244736,317.281708 189.889877,317.400970 190.767517,317.760132 
	C191.000000,318.000000 190.993912,318.008545 190.993912,318.008545 
	C190.464737,317.984222 189.935577,317.959930 189.011658,317.890167 
z"/>
<path fill="#292929" opacity="1.000000" stroke="none" 
	d="
M291.587616,359.350952 
	C291.406433,359.215515 291.374573,358.977814 291.342712,358.740082 
	C291.474091,358.909607 291.605530,359.079102 291.587616,359.350952 
z"/>
<path fill="#BFBFBF" opacity="1.000000" stroke="none" 
	d="
M218.426163,138.209229 
	C217.887115,137.879929 217.676361,137.686218 217.725403,137.150665 
	C218.440918,136.800583 218.896606,136.792358 219.685379,136.861023 
	C220.018463,136.937881 219.991989,136.989395 220.020905,136.988083 
	C219.618042,137.439438 219.186234,137.892120 218.426163,138.209229 
z"/>
<path fill="#434343" opacity="1.000000" stroke="none" 
	d="
M210.473572,358.289825 
	C210.198868,358.527252 209.712051,358.531769 209.225220,358.536285 
	C209.570633,358.376495 209.916046,358.216705 210.473572,358.289825 
z"/>
<path fill="#0A0A0A" opacity="1.000000" stroke="none" 
	d="
M191.429657,326.800415 
	C191.464905,326.779755 191.394409,326.821045 191.429657,326.800415 
z"/>
<path fill="#B8B8B8" opacity="1.000000" stroke="none" 
	d="
M270.393433,140.197739 
	C269.916016,140.268326 269.773254,140.162125 269.366211,140.018311 
	C269.327820,139.543137 269.553650,139.105576 269.779480,138.668015 
	C270.095703,139.119003 270.411896,139.569977 270.393433,140.197739 
z"/>
<path fill="#DBDBDB" opacity="1.000000" stroke="none" 
	d="
M267.374725,355.480164 
	C267.078430,355.378052 267.068787,355.080292 267.002930,354.339233 
	C267.282349,353.778564 267.618011,353.661224 267.953674,353.543884 
	C267.856232,354.124084 267.758789,354.704285 267.374725,355.480164 
z"/>
<path fill="#0A0A0A" opacity="1.000000" stroke="none" 
	d="
M185.429382,351.799500 
	C185.464813,351.778748 185.393967,351.820221 185.429382,351.799500 
z"/>
<path fill="#C9C9C9" opacity="1.000000" stroke="none" 
	d="
M308.935059,350.022400 
	C309.051300,350.570251 309.167511,351.118073 309.283722,351.665924 
	C309.007446,351.715607 308.731140,351.765320 308.454865,351.815033 
	C308.400757,351.288330 308.346619,350.761658 308.650757,350.150757 
	C309.009033,350.066559 308.935059,350.022400 308.935059,350.022400 
z"/>
<path fill="#0A0A0A" opacity="1.000000" stroke="none" 
	d="
M198.883911,347.914856 
	C199.337143,347.802704 199.790375,347.690582 200.243622,347.578430 
	C200.011429,347.740509 199.779251,347.902588 199.271210,348.040039 
	C198.995377,348.015472 198.883911,347.914856 198.883911,347.914856 
z"/>
<path fill="#0A0A0A" opacity="1.000000" stroke="none" 
	d="
M289.704102,139.617615 
	C289.843445,139.435776 290.084534,139.406967 290.325623,139.378143 
	C290.152344,139.508972 289.979065,139.639816 289.704102,139.617615 
z"/>
<path fill="#DBDBDB" opacity="1.000000" stroke="none" 
	d="
M211.650192,338.734131 
	C211.927795,339.177094 211.852158,339.544006 211.776520,339.910889 
	C211.616669,339.493286 211.456802,339.075653 211.650192,338.734131 
z"/>
<path fill="#DBDBDB" opacity="1.000000" stroke="none" 
	d="
M195.632172,341.509216 
	C195.757248,340.851624 196.078461,340.454529 196.644363,339.979248 
	C197.016373,340.029999 197.143707,340.158966 197.442825,340.498840 
	C197.329590,341.157013 197.044586,341.604309 196.511963,342.153198 
	C196.119003,342.093140 195.973648,341.931458 195.632172,341.509216 
z"/>
<path fill="#DBDBDB" opacity="1.000000" stroke="none" 
	d="
M320.943542,342.226135 
	C320.739685,342.636322 320.511292,342.720795 320.282867,342.805298 
	C320.292999,342.409912 320.303101,342.014526 320.313232,341.619171 
	C320.515167,341.712921 320.717072,341.806671 320.943542,342.226135 
z"/>
<path fill="#8E8E8E" opacity="1.000000" stroke="none" 
	d="
M208.946411,140.553711 
	C208.580215,140.841629 208.240616,140.869949 207.389893,140.894897 
	C207.576843,140.692413 208.274933,140.493271 208.946411,140.553711 
z"/>
<path fill="#777777" opacity="1.000000" stroke="none" 
	d="
M286.820404,343.091827 
	C286.564636,343.286255 286.313263,343.194000 286.061859,343.101746 
	C286.316162,343.002899 286.570465,342.904022 286.820404,343.091827 
z"/>
<path fill="#DBDBDB" opacity="1.000000" stroke="none" 
	d="
M321.989990,307.230896 
	C322.204987,306.916840 322.403412,306.823639 322.864319,306.928497 
	C323.112244,307.536072 323.097656,307.945557 322.932739,308.647461 
	C322.511658,308.783020 322.307922,308.563812 322.053619,308.087738 
	C321.936035,307.893188 321.973450,307.451782 321.989990,307.230896 
z"/>
<path fill="#BFBFBF" opacity="1.000000" stroke="none" 
	d="
M337.572388,279.000031 
	C338.315430,278.833893 338.709625,278.945831 339.103790,279.057770 
	C338.998444,279.313477 338.837067,279.799866 338.796204,279.789978 
	C338.262054,279.660278 337.744904,279.460388 337.572388,279.000031 
z"/>
<path fill="#BFBFBF" opacity="1.000000" stroke="none" 
	d="
M144.973328,301.645050 
	C145.061478,301.980438 145.130280,302.336334 145.125214,302.517578 
	C144.747665,302.639160 144.375168,302.579529 144.002686,302.519928 
	C144.296829,302.116486 144.591003,301.713074 144.973328,301.645050 
z"/>
<path fill="#1A1A1A" opacity="1.000000" stroke="none" 
	d="
M132.530853,271.319519 
	C132.982529,271.271088 133.328552,271.372101 133.699982,271.766296 
	C133.291992,271.862671 132.858597,271.665802 132.530853,271.319519 
z"/>
<path fill="#0A0A0A" opacity="1.000000" stroke="none" 
	d="
M185.407532,160.783966 
	C185.447250,160.760132 185.367813,160.807816 185.407532,160.783966 
z"/>
<path fill="#434343" opacity="1.000000" stroke="none" 
	d="
M361.473785,226.183655 
	C361.464996,225.846146 361.681274,225.503189 362.226166,225.139038 
	C362.269470,225.471298 361.984161,225.824753 361.473785,226.183655 
z"/>
<path fill="#292929" opacity="1.000000" stroke="none" 
	d="
M158.751770,196.037170 
	C159.106400,196.361908 159.017014,196.663010 158.537689,196.993591 
	C158.063492,196.929657 157.820496,196.789124 157.577484,196.648590 
	C157.873825,196.452606 158.170166,196.256622 158.751770,196.037170 
z"/>
<path fill="#0A0A0A" opacity="1.000000" stroke="none" 
	d="
M176.522354,167.538666 
	C176.479507,167.562073 176.565201,167.515259 176.522354,167.538666 
z"/>
<path fill="#BFBFBF" opacity="1.000000" stroke="none" 
	d="
M180.289398,155.699524 
	C180.297012,155.425339 180.504211,155.362579 180.711411,155.299820 
	C180.637268,155.503525 180.563126,155.707214 180.289398,155.699524 
z"/>
<path fill="#434343" opacity="1.000000" stroke="none" 
	d="
M133.402039,276.565063 
	C133.389664,276.336761 133.486603,276.259064 133.583527,276.181366 
	C133.656403,276.281860 133.795624,276.391357 133.783524,276.480316 
	C133.771423,276.569458 133.608292,276.638062 133.402039,276.565063 
z"/>
<path fill="#0A0A0A" opacity="1.000000" stroke="none" 
	d="
M183.449219,162.540344 
	C183.407608,162.474960 183.490829,162.605713 183.449219,162.540344 
z"/>
<path fill="#B8B8B8" opacity="1.000000" stroke="none" 
	d="
M145.232544,198.493423 
	C144.994400,198.547272 144.506287,198.255798 144.217896,197.736938 
	C144.605957,197.722397 144.794266,197.935257 145.232544,198.493423 
z"/>
<path fill="#777777" opacity="1.000000" stroke="none" 
	d="
M285.703247,345.642944 
	C285.457092,345.631104 285.405090,345.431519 285.353088,345.231934 
	C285.534546,345.306366 285.715973,345.380768 285.703247,345.642944 
z"/>
<path fill="#0A0A0A" opacity="1.000000" stroke="none" 
	d="
M180.462158,165.450500 
	C180.511459,165.422028 180.412842,165.478973 180.462158,165.450500 
z"/>
<path fill="#434343" opacity="1.000000" stroke="none" 
	d="
M147.712189,189.331314 
	C147.700790,189.618774 147.493484,189.682526 147.286179,189.746277 
	C147.362885,189.533401 147.439590,189.320496 147.712189,189.331314 
z"/>
<path fill="#0A0A0A" opacity="1.000000" stroke="none" 
	d="
M199.044891,348.071899 
	C198.955902,348.111664 198.817398,348.094971 198.781403,347.996552 
	C198.883911,347.914856 198.995377,348.015472 199.044891,348.071899 
z"/>
<path fill="#434343" opacity="1.000000" stroke="none" 
	d="
M339.196899,236.213257 
	C339.058868,236.253708 338.803009,236.173492 338.692505,235.974915 
	C338.837921,235.856552 339.079010,236.092590 339.196899,236.213257 
z"/>
<path fill="#C9C9C9" opacity="1.000000" stroke="none" 
	d="
M309.029602,350.104431 
	C309.139435,349.830261 309.271790,349.537781 309.683228,349.226440 
	C309.919281,349.188049 309.948120,349.069824 309.887970,349.082428 
	C309.873993,349.471558 309.712921,349.705414 309.139832,349.909546 
	C308.935059,350.022400 309.009033,350.066559 309.029602,350.104431 
z"/>
<path fill="#292929" opacity="1.000000" stroke="none" 
	d="
M153.479736,267.058105 
	C153.637665,266.956848 153.640305,267.025116 153.679153,267.028320 
	C153.585938,267.074127 153.453873,267.116730 153.479736,267.058105 
z"/>
<path fill="#434343" opacity="1.000000" stroke="none" 
	d="
M160.980865,180.048279 
	C161.100174,179.855011 161.224884,179.620316 161.349579,179.385620 
	C161.345551,179.596909 161.341522,179.808212 161.120163,180.015381 
	C160.902832,180.011246 160.986267,180.006851 160.980865,180.048279 
z"/>
<path fill="#434343" opacity="1.000000" stroke="none" 
	d="
M313.037048,181.896408 
	C312.904541,182.118805 312.742584,182.381729 312.580627,182.644653 
	C312.588837,182.380859 312.597046,182.117065 312.853638,181.880188 
	C313.102020,181.907104 313.007629,181.936935 313.037048,181.896408 
z"/>
<path fill="#8E8E8E" opacity="1.000000" stroke="none" 
	d="
M358.125824,257.931671 
	C358.153351,257.946442 358.033752,258.084259 358.033752,258.084259 
	C358.033752,258.084259 358.197113,257.926300 358.144836,257.890503 
	C358.092560,257.854675 358.098297,257.916901 358.125824,257.931671 
z"/>
<path fill="#777777" opacity="1.000000" stroke="none" 
	d="
M347.545502,307.100525 
	C347.963745,306.976349 348.069397,306.951080 348.119507,306.957886 
	C348.005310,307.297668 347.841064,307.630676 347.676819,307.963715 
	C347.493652,307.717346 347.310455,307.471008 347.545502,307.100525 
z"/>
<path fill="#DBDBDB" opacity="1.000000" stroke="none" 
	d="
M307.442932,154.416382 
	C307.526855,154.357498 307.558716,154.585541 307.558716,154.585541 
	C307.558716,154.585541 307.358978,154.475266 307.442932,154.416382 
z"/>
<path fill="#0A0A0A" opacity="1.000000" stroke="none" 
	d="
M191.003967,317.996887 
	C191.007935,317.993774 191.390564,318.236053 191.390564,318.236053 
	C191.390564,318.236053 191.094193,318.224976 191.044052,318.116760 
	C190.993912,318.008545 191.000000,318.000000 191.003967,317.996887 
z"/>
<path fill="#434343" opacity="1.000000" stroke="none" 
	d="
M266.023376,154.755066 
	C265.826996,154.952972 265.630157,154.931946 265.147430,154.830353 
	C264.861542,154.749771 264.962585,154.324051 265.272461,154.129791 
	C265.740723,153.990250 265.899109,154.044968 266.057495,154.099686 
	C266.057495,154.099686 266.022949,154.536148 266.023376,154.755066 
z"/>
<path fill="#B8B8B8" opacity="1.000000" stroke="none" 
	d="
M266.280518,153.728790 
	C265.899109,154.044968 265.740723,153.990250 265.331543,153.919128 
	C265.554993,153.721130 266.029297,153.539520 266.280518,153.728790 
z"/>
<path fill="#1A1A1A" opacity="1.000000" stroke="none" 
	d="
M348.120392,308.976746 
	C348.313904,308.878876 348.525818,308.786469 348.448608,308.869995 
	C348.159515,309.045929 348.138763,308.982208 348.120392,308.976746 
z"/>
<path fill="#434343" opacity="1.000000" stroke="none" 
	d="
M304.306000,323.294495 
	C304.572571,323.302917 304.632874,323.505798 304.693176,323.708710 
	C304.495361,323.635498 304.297546,323.562256 304.306000,323.294495 
z"/>
<path fill="#434343" opacity="1.000000" stroke="none" 
	d="
M182.912125,153.223419 
	C182.939560,153.444550 182.726654,153.710571 182.243408,153.965210 
	C182.180084,153.698914 182.412979,153.470413 182.912125,153.223419 
z"/>
<path fill="#C9C9C9" opacity="1.000000" stroke="none" 
	d="
M305.594360,158.347122 
	C305.626617,157.945465 306.095551,157.986938 306.322998,158.046631 
	C306.074707,158.301239 305.599030,158.496185 305.094910,159.087234 
	C305.066467,159.483353 304.998260,159.082016 304.877258,158.914902 
	C305.024841,158.748108 305.293457,158.748444 305.594360,158.347122 
z"/>
<path fill="#1A1A1A" opacity="1.000000" stroke="none" 
	d="
M187.724792,151.018311 
	C187.994400,151.180237 187.974838,151.354370 187.917068,151.788605 
	C187.878845,152.048676 187.590683,152.102814 187.447632,152.070786 
	C187.199188,151.891373 187.093811,151.744003 186.923264,151.332779 
	C187.050598,151.056137 187.243103,151.043350 187.724792,151.018311 
z"/>
<path fill="#434343" opacity="1.000000" stroke="none" 
	d="
M221.369156,162.025818 
	C221.077072,161.896332 221.028793,161.731705 220.954086,161.311172 
	C221.096878,161.045395 221.266098,161.035538 221.687622,160.996338 
	C221.939911,160.966965 222.064911,161.435333 222.082611,161.676880 
	C222.100296,161.918427 221.612961,161.990646 221.369156,162.025818 
z"/>
<path fill="#B8B8B8" opacity="1.000000" stroke="none" 
	d="
M227.233795,160.356201 
	C227.000000,159.951523 226.947067,159.774551 226.949371,159.326050 
	C227.172546,159.043213 227.340500,159.031891 227.759033,159.051910 
	C227.996582,159.287766 227.983582,159.492325 227.949188,160.003601 
	C227.756760,160.401520 227.585709,160.492706 227.233795,160.356201 
z"/>
<path fill="#1A1A1A" opacity="1.000000" stroke="none" 
	d="
M287.571411,149.464859 
	C287.623749,149.547424 287.411194,149.577240 287.411194,149.577240 
	C287.411194,149.577240 287.519073,149.382294 287.571411,149.464859 
z"/>
<path fill="#0A0A0A" opacity="1.000000" stroke="none" 
	d="
M283.547852,336.475830 
	C283.574249,336.521515 283.521484,336.430176 283.547852,336.475830 
z"/>
<path fill="#434343" opacity="1.000000" stroke="none" 
	d="
M210.379440,337.339264 
	C210.661041,337.309113 210.763611,337.422821 210.866180,337.536499 
	C210.644241,337.518707 210.422333,337.500916 210.379440,337.339264 
z"/>
<path fill="#1A1A1A" opacity="1.000000" stroke="none" 
	d="
M269.101135,143.675232 
	C268.892273,143.824265 268.705444,143.856705 268.240387,143.830322 
	C267.962128,143.771500 267.947266,143.374329 267.977875,143.177963 
	C268.192444,143.008270 268.376404,143.034943 268.803772,143.197723 
	C269.047119,143.333832 269.123199,143.558640 269.101135,143.675232 
z"/>
<path fill="#C9C9C9" opacity="1.000000" stroke="none" 
	d="
M339.866821,303.459351 
	C339.915558,303.035583 340.242126,303.065704 340.401672,303.027618 
	C340.075623,303.092102 339.590088,303.194672 339.090302,303.673248 
	C339.076080,304.049225 339.020386,304.006622 338.994324,303.982849 
	C339.251526,303.933777 339.534790,303.908447 339.866821,303.459351 
z"/>
<path fill="#434343" opacity="1.000000" stroke="none" 
	d="
M324.694275,303.706787 
	C324.427551,303.698578 324.367096,303.496124 324.306610,303.293671 
	C324.504578,303.366638 324.702515,303.439606 324.694275,303.706787 
z"/>
<path fill="#0A0A0A" opacity="1.000000" stroke="none" 
	d="
M171.542877,341.560486 
	C171.475662,341.603424 171.610092,341.517517 171.542877,341.560486 
z"/>
</svg>